<svg width="366" height="180" viewBox="0 0 366 180" fill="none" xmlns="http://www.w3.org/2000/svg">
<g clip-path="url(#clip0_410_12943)">
<path d="M76.288 178.86C77.2485 179.405 78.4833 179.269 79.3066 178.451L136.111 136.442C136.111 136.442 346.178 121.985 348.922 121.576C353.587 121.03 357.155 119.666 360.036 117.211C367.445 110.937 366.485 100.298 364.564 97.9798C364.152 97.5706 364.015 97.707 363.741 97.8434C359.762 101.253 352.078 103.435 340.964 104.39C339.455 104.527 132.132 118.984 132.132 118.984L93.9879 147.899C93.3019 148.308 91.9298 149.263 90.8321 148.854C90.4205 148.717 90.0089 148.308 89.8717 147.763V147.49V121.712C79.1694 122.394 20.8556 125.94 17.0137 126.486C12.3486 127.031 8.78121 128.395 5.89983 130.85C-1.50945 137.124 -0.548992 147.763 1.37193 150.081C1.78356 150.491 1.92077 150.354 2.19519 150.218C6.17424 146.808 13.8579 144.626 24.9719 143.671C26.344 143.535 74.6415 140.534 74.6415 140.534V175.859C74.6415 177.223 75.3275 178.314 76.288 178.86Z" fill="#4D7BDB"/>
<path d="M21.5423 42.0591V62.7906L42.8096 61.2903C45.5538 61.1539 47.7492 61.8358 49.5329 63.6089C51.3166 65.382 52.1398 67.5643 52.1398 70.1557C52.1398 72.7472 51.1794 75.0658 49.5329 76.9753C47.7492 78.8848 45.5538 79.9759 42.8096 80.1123L21.5423 81.6126V102.89C21.5423 105.617 20.5818 107.936 18.7981 109.846C17.0144 111.755 14.6818 112.846 11.9376 112.983C9.19345 113.119 6.99811 112.437 5.07719 110.8C3.29347 109.164 2.33301 106.981 2.33301 104.254V34.012C2.33301 31.557 3.29347 29.3747 5.07719 27.3288C6.8609 25.283 9.19345 24.0554 11.9376 23.919L52.1398 21.1912C54.7468 21.0548 56.9422 21.7368 58.8631 23.5099C60.6468 25.283 61.6073 27.4652 61.6073 30.0567C61.6073 32.7845 60.6468 35.1031 58.8631 37.0126C57.0794 38.9221 54.7468 40.0132 52.1398 40.1496L21.5423 42.0591Z" fill="#4D7BDB"/>
<path d="M76.1513 19.9633C78.621 19.8269 80.8164 20.5088 82.6001 22.1455C84.3838 23.7822 85.3442 25.9645 85.4815 28.5559V83.658C85.4815 85.5675 86.0303 87.0678 87.2652 88.2953C88.5001 89.5229 90.0094 90.0684 91.9303 89.932C94.4 89.7956 96.4582 90.4776 98.3791 91.9779C100.163 93.4782 101.123 95.5241 101.26 98.1155C101.26 100.298 100.437 102.344 98.9279 104.253C97.4186 106.026 95.3605 107.254 92.8907 107.799L90.9698 107.936C87.6768 108.208 84.6582 107.663 81.6396 106.572C78.7582 105.481 76.1513 103.844 73.9559 101.798C71.7606 99.7522 69.9768 97.2972 68.742 94.2966C67.5071 91.4323 66.821 88.2953 66.821 85.0219V29.2379C67.0955 26.9192 68.0559 24.8733 69.8396 22.9639C71.4861 21.1908 73.6815 20.236 76.1513 19.9633Z" fill="#4D7BDB"/>
<path d="M137.621 36.7395C142.149 36.4667 146.539 37.0122 150.656 38.5125C154.772 40.0128 158.339 42.1951 161.495 45.0593C164.651 47.9235 166.984 51.3333 168.904 55.2887C170.688 59.244 171.649 63.6086 171.649 68.3823C171.649 73.0196 170.825 77.3841 169.042 81.6122C167.258 85.8404 164.788 89.5229 161.77 92.7963C158.751 96.0697 155.184 98.7976 151.067 100.843C146.951 102.889 142.423 104.117 137.758 104.39C133.093 104.662 128.702 104.117 124.586 102.753C120.47 101.389 116.902 99.2067 113.746 96.4789C110.591 93.6147 108.258 90.3413 106.474 86.2495C104.691 82.2942 103.867 77.9297 103.867 73.0196C103.867 68.3823 104.691 64.0177 106.474 59.7896C108.258 55.5615 110.591 51.8789 113.609 48.7419C116.628 45.4685 120.333 42.8771 124.449 40.6948C128.291 38.5125 132.819 37.285 137.621 36.7395ZM137.621 55.0159C135.425 55.1523 133.505 55.6979 131.584 56.6526C129.663 57.6073 128.016 58.8349 126.644 60.3352C125.272 61.8355 124.037 63.6086 123.214 65.518C122.391 67.4275 121.979 69.6098 121.979 71.792C121.979 73.9743 122.391 75.8838 123.214 77.7933C124.037 79.7028 125.272 81.2031 126.644 82.567C128.153 83.9309 129.8 84.8856 131.584 85.704C133.505 86.3859 135.425 86.6587 137.621 86.5223C139.816 86.3859 141.874 85.8404 143.795 84.8856C145.716 83.9309 147.363 82.7034 148.735 81.0667C150.107 79.5664 151.205 77.7933 152.165 75.7474C152.988 73.8379 153.4 71.792 153.4 69.6098C153.263 65.3817 151.616 61.8355 148.735 59.1076C145.853 56.2434 142.149 54.8795 137.621 55.0159Z" fill="#4D7BDB"/>
<path d="M204.716 32.2382C207.46 32.1018 210.204 32.2382 212.948 33.0566C215.555 33.7385 218.025 34.966 220.358 36.6027C224.886 32.6474 230.1 30.4651 236.137 30.056C239.43 29.7832 242.586 30.1923 245.604 31.2835C248.623 32.3746 251.367 33.8749 253.562 35.7844C255.895 37.8303 257.679 40.1489 259.051 43.0131C260.423 45.8774 261.109 49.0144 261.109 52.4241V87.4767C261.109 89.659 260.148 91.7049 258.365 93.478C256.444 95.251 254.386 96.2058 251.916 96.4786C249.446 96.615 247.388 95.933 245.467 94.1599C243.683 92.5232 242.723 90.4773 242.723 88.0223V54.0608C242.723 52.2878 242.037 50.7875 240.802 49.6963C239.567 48.6052 237.92 48.0596 236.137 48.196C234.49 48.3324 233.118 49.0144 231.746 50.1055C230.374 51.333 229.688 52.8333 229.688 54.8792V88.8406C229.688 91.2957 228.727 93.6144 226.944 95.3874C225.16 97.2969 222.965 98.2517 220.358 98.5244C218.025 98.6608 215.967 97.9789 214.046 96.4786C212.125 94.9783 211.302 93.0688 211.302 90.7501V56.1067C211.165 54.1972 210.479 52.8333 209.244 51.7422C207.872 50.6511 206.5 50.2419 204.853 50.2419C203.069 50.3783 201.56 51.0602 200.325 52.4241C199.09 53.7881 198.404 55.2884 198.267 57.1978V91.9777C198.13 94.1599 197.169 96.2058 195.386 97.9789C193.602 99.752 191.544 100.707 189.074 100.843C187.702 100.979 186.604 100.843 185.369 100.434C184.272 100.025 183.311 99.4792 182.351 98.6608C181.528 97.8425 180.842 96.8877 180.293 95.933C179.744 94.8419 179.607 93.7507 179.607 92.5232V58.1526C179.607 54.8792 180.293 51.7422 181.528 48.7416C182.9 45.741 184.683 43.0131 186.879 40.6945C189.074 38.3758 191.818 36.4664 194.837 34.966C197.993 33.3293 201.148 32.3746 204.716 32.2382Z" fill="#4D7BDB"/>
<path d="M303.918 24.8737C308.446 24.6009 312.7 25.0101 316.816 26.374C320.932 27.7379 324.5 29.7838 327.656 32.5116C330.811 35.2395 333.281 38.5129 335.065 42.3318C336.986 46.1508 337.809 50.5153 337.809 55.1526V80.9306C337.809 83.3856 336.986 85.5679 335.202 87.341C333.418 89.2504 331.36 90.3416 328.753 90.6144C326.283 90.7508 324.088 90.0688 322.167 88.5685C320.383 87.0682 319.423 85.0223 319.423 82.5673V57.4713C319.423 55.289 319.011 53.3795 318.188 51.47C317.365 49.5606 316.267 48.0603 314.758 46.6963C313.249 45.4688 311.602 44.3777 309.681 43.6957C307.76 43.0138 305.702 42.741 303.37 42.8774C301.311 43.0138 299.39 43.5593 297.47 44.5141C295.549 45.4688 293.902 46.5599 292.53 48.0603C291.158 49.5606 290.06 51.0609 289.1 53.1067C288.277 55.0162 287.865 57.0621 287.865 59.1079V84.4767C287.865 86.9318 286.904 89.114 285.121 91.0235C283.2 92.933 281.142 94.0241 278.672 94.1605C276.202 94.2969 274.144 93.615 272.223 92.1147C270.302 90.6144 269.479 88.5685 269.479 86.1134V61.0174C269.616 56.3801 270.439 51.8792 272.223 47.6511C274.007 43.4229 276.339 39.7404 279.358 36.467C282.377 33.1936 285.944 30.4658 290.06 28.4199C294.588 26.374 299.116 25.1465 303.918 24.8737Z" fill="#4D7BDB"/>
<path d="M356.057 0.732226C358.527 0.595835 360.585 1.27779 362.369 3.05088C364.153 4.68758 364.976 6.86984 364.976 9.18849C364.976 11.6435 364.153 13.8258 362.369 15.7353C360.585 17.6448 358.527 18.7359 356.057 18.8723C353.313 19.0087 351.118 18.3267 349.334 16.69C347.551 15.1897 346.727 12.8711 346.727 10.0068C346.865 7.5518 347.825 5.50593 349.609 3.73284C351.53 1.82336 353.725 0.868618 356.057 0.732226ZM356.057 22.0093C358.527 21.8729 360.585 22.5549 362.232 24.1915C363.878 25.8282 364.839 27.8741 364.976 30.4656V79.8392C364.976 82.2943 364.153 84.4765 362.643 86.2496C360.997 88.0227 358.939 89.1139 356.195 89.523C353.725 89.6594 351.667 89.1139 350.02 87.7499C348.374 86.386 347.276 84.3402 346.865 81.7487V31.2839C347.002 28.8289 348.099 26.783 349.883 25.0099C351.53 23.3732 353.725 22.2821 356.057 22.0093Z" fill="#4D7BDB"/>
</g>
<defs>
<clipPath id="clip0_410_12943">
<rect width="365.936" height="178.536" fill="white" transform="translate(0 0.731934)"/>
</clipPath>
</defs>
</svg>
